<?xml version="1.0" standalone="no"?>
<!DOCTYPE svg PUBLIC "-//W3C//DTD SVG 20010904//EN"
 "http://www.w3.org/TR/2001/REC-SVG-20010904/DTD/svg10.dtd">
<svg version="1.0" xmlns="http://www.w3.org/2000/svg"
 width="1028.000000pt" height="768.000000pt" viewBox="0 0 1028.000000 768.000000"
 preserveAspectRatio="xMidYMid meet">
<metadata>
Created by potrace 1.13, written by Peter Selinger 2001-2015
</metadata>
<g transform="translate(0.000000,768.000000) scale(0.100000,-0.100000)"
fill="#000000" stroke="none">
<path d="M4753 5926 c23 -18 22 -42 -3 -49 -11 -3 -20 -12 -20 -21 0 -9 -4
-16 -8 -16 -5 0 -7 14 -4 30 3 23 0 30 -12 30 -14 0 -14 -3 -4 -19 10 -16 9
-23 -6 -40 -10 -11 -21 -19 -25 -17 -3 2 -19 -13 -35 -35 -17 -21 -35 -39 -42
-39 -15 0 -14 71 1 83 6 4 5 10 -4 16 -8 5 -11 16 -8 24 4 11 0 13 -14 10 -25
-7 -35 -23 -15 -23 18 0 22 -45 6 -55 -5 -3 -10 2 -10 13 0 29 -9 32 -51 16
-37 -12 -40 -12 -37 4 5 35 -11 44 -41 22 -30 -20 -41 -18 -41 10 0 9 -6 25
-14 35 -13 18 -13 18 -10 -5 2 -14 5 -37 7 -52 2 -15 1 -25 -4 -23 -4 3 -10
-1 -13 -7 -3 -7 -3 -1 0 13 3 15 1 30 -5 33 -6 4 -11 0 -11 -8 0 -8 -5 -18
-11 -22 -8 -4 -9 0 -4 15 4 13 2 21 -6 21 -7 0 -10 -10 -6 -29 8 -38 -1 -45
-24 -18 -15 18 -18 19 -19 6 0 -25 25 -41 53 -34 18 5 28 2 36 -12 9 -15 12
-16 20 -3 6 8 13 11 17 7 9 -8 -13 -55 -38 -80 -10 -10 -21 -30 -24 -45 -4
-15 -14 -36 -22 -47 -15 -21 -15 -23 4 90 5 30 5 30 -13 -5 l-17 -35 -3 27
c-3 14 -11 29 -20 32 -23 9 -25 3 -7 -32 8 -18 14 -42 12 -54 -3 -20 -5 -18
-21 15 -10 21 -21 36 -24 33 -4 -3 -12 -1 -19 5 -7 6 -14 6 -18 1 -3 -6 1 -12
9 -16 8 -3 15 -11 15 -18 0 -9 -3 -9 -12 0 -16 16 -28 15 -28 -2 0 -8 -7 -17
-16 -20 -10 -4 -13 -13 -9 -25 5 -16 2 -18 -15 -14 -11 3 -20 0 -20 -6 0 -6 9
-11 19 -11 11 0 22 -4 26 -9 3 -5 -9 -9 -26 -9 -21 1 -33 7 -39 22 -5 12 -9
16 -9 10 -1 -6 -11 -16 -23 -23 -13 -6 -15 -9 -5 -7 22 7 23 -10 1 -18 -14 -5
-15 -15 -10 -52 5 -37 3 -45 -8 -41 -23 9 -27 -5 -7 -27 21 -24 34 -66 20 -66
-5 0 -9 -7 -9 -15 0 -8 -7 -15 -15 -15 -9 0 -19 -8 -22 -17 -4 -10 -13 -24
-21 -32 -9 -9 -11 -22 -6 -40 4 -14 8 -39 9 -56 2 -43 16 -85 27 -85 6 0 7 -7
4 -16 -3 -8 -1 -25 5 -36 9 -16 13 -18 20 -7 6 11 9 10 15 -5 4 -11 2 -21 -6
-26 -8 -5 -9 -9 -1 -14 6 -4 11 -18 11 -31 0 -35 31 -95 49 -95 11 0 12 -3 4
-11 -10 -10 16 -42 145 -177 21 -21 146 -86 156 -80 9 6 46 -36 46 -53 0 -25
21 -35 35 -16 6 9 24 19 41 22 21 5 25 4 14 -4 -12 -8 -12 -12 3 -29 9 -10 17
-23 17 -29 0 -6 -28 -40 -62 -76 -35 -36 -81 -90 -103 -122 -22 -31 -55 -75
-74 -98 -33 -41 -204 -298 -236 -354 -8 -15 -25 -43 -36 -62 -29 -48 -15 -55
69 -36 l72 17 0 43 c0 55 20 146 35 163 19 21 81 31 197 33 87 1 113 -2 134
-16 16 -10 34 -14 48 -10 66 20 87 21 147 9 35 -8 70 -11 78 -9 7 3 19 1 25
-3 6 -5 25 -12 41 -15 17 -4 62 -14 100 -22 131 -30 200 -39 293 -36 52 1 110
-3 129 -10 28 -9 44 -9 77 2 22 7 46 18 51 25 9 11 60 26 131 39 17 3 62 -1
98 -9 88 -21 102 -21 82 -1 -8 8 -24 15 -35 15 -18 0 -20 4 -15 25 7 28 2 30
-27 15 -12 -7 -19 -7 -19 -1 0 5 -16 26 -35 47 -19 20 -35 43 -35 50 0 22 -18
16 -22 -6 -2 -15 -7 -17 -18 -10 -10 7 -11 13 -5 18 6 4 11 12 10 19 0 22 -14
25 -37 9 -28 -20 -38 -20 -38 0 0 11 -6 14 -20 9 -15 -5 -18 -3 -14 9 3 8 11
14 17 13 6 -1 13 8 15 21 4 26 -13 29 -27 5 -9 -16 -12 -16 -21 -3 -5 8 -7 22
-3 30 3 8 6 25 6 36 -1 21 2 20 61 -10 33 -18 81 -38 106 -46 105 -33 209
-136 224 -224 9 -49 32 -74 78 -81 48 -8 124 -45 178 -85 19 -14 58 -38 86
-53 l51 -27 19 26 c45 62 52 67 119 83 82 20 113 50 96 93 -6 15 -61 78 -123
141 -62 63 -117 120 -123 127 -29 33 -101 90 -115 90 -21 0 -80 37 -112 70
-28 30 -145 110 -212 147 -68 37 -190 93 -203 93 -7 0 -13 7 -13 15 0 8 5 15
11 15 7 0 9 10 5 28 -6 26 -6 26 9 7 9 -11 13 -25 11 -32 -3 -7 1 -13 9 -13
17 0 21 55 5 65 -5 3 -10 22 -10 41 0 21 4 33 10 29 6 -3 10 -18 10 -32 0 -15
6 -34 14 -42 8 -9 16 -29 18 -44 4 -30 22 -47 51 -47 9 0 39 -11 66 -24 74
-35 100 -40 108 -19 4 10 19 31 35 46 32 33 34 44 12 69 -16 16 -16 18 0 24
14 5 13 10 -9 36 -14 16 -25 36 -25 44 0 8 -14 33 -31 57 -35 48 -63 106 -60
125 1 6 -5 12 -12 12 -8 0 -17 9 -20 20 -3 11 -13 20 -22 20 -10 0 -15 6 -13
18 4 18 -45 62 -68 62 -7 0 -19 8 -26 18 -22 31 -48 34 -69 10 -10 -13 -18
-17 -19 -10 0 6 9 21 20 32 22 22 27 35 9 24 -6 -3 -21 -2 -32 4 -12 5 -36 15
-54 22 -18 7 -31 17 -30 23 1 6 -11 14 -28 17 -24 6 -27 8 -13 14 14 6 15 11
6 26 -7 10 -15 17 -19 14 -8 -5 -23 14 -33 40 -5 16 -4 17 9 6 8 -7 15 -18 15
-24 0 -8 11 -11 30 -8 17 2 30 0 30 -6 0 -9 75 -34 111 -37 10 -1 26 -8 36
-17 24 -21 63 -32 63 -18 0 6 4 9 10 5 5 -3 7 -12 4 -19 -3 -8 0 -17 7 -22 7
-4 15 -2 17 4 2 7 11 12 19 12 12 0 14 -7 9 -35 -5 -27 -4 -34 7 -29 8 3 17
-2 21 -11 3 -9 10 -13 16 -10 5 3 10 -1 10 -9 0 -10 8 -15 23 -13 16 1 22 -3
21 -15 -1 -10 2 -15 7 -12 5 2 11 -8 15 -23 4 -15 10 -33 15 -38 4 -6 9 -26
11 -45 3 -30 7 -35 31 -38 23 -3 26 -7 21 -28 -5 -20 -3 -24 16 -24 21 0 22
-3 16 -41 -5 -31 -3 -40 6 -37 7 3 14 14 16 26 2 12 10 22 18 22 20 0 17 17
-5 29 -10 6 -34 40 -52 76 -18 36 -39 71 -46 77 -7 6 -13 17 -13 25 0 7 -7 16
-15 19 -8 4 -15 14 -15 24 0 10 -10 27 -23 37 -13 10 -31 30 -41 46 -10 15
-23 27 -30 27 -6 0 -23 11 -38 25 -15 14 -34 25 -43 25 -8 0 -15 8 -15 19 0
15 -10 20 -46 26 -25 3 -54 15 -65 26 -10 10 -32 19 -48 19 -48 0 -51 27 -6
43 6 2 4 11 -4 20 -10 12 -17 14 -26 7 -9 -8 -14 -6 -19 6 -8 22 -8 26 3 19 5
-3 23 -7 41 -9 17 -2 39 -11 49 -20 9 -9 27 -16 38 -16 11 0 33 -6 48 -14 15
-8 34 -12 41 -9 8 3 16 -2 20 -10 3 -9 12 -13 21 -10 11 4 14 2 9 -5 -5 -8 0
-12 12 -12 12 0 23 -9 27 -22 6 -20 8 -20 12 -5 6 23 30 22 38 -3 3 -11 11
-20 16 -20 6 0 8 -3 6 -7 -9 -14 18 -30 38 -23 13 5 15 9 7 14 -7 4 -10 12 -7
17 4 5 -5 14 -19 21 -14 6 -26 15 -26 21 0 14 -43 46 -62 47 -21 0 -24 16 -5
23 7 2 8 8 3 13 -5 5 -11 4 -13 -3 -5 -15 -83 -18 -83 -4 0 5 -15 15 -34 22
-27 10 -34 17 -33 37 1 14 -4 27 -10 29 -8 3 -13 -4 -13 -16 0 -29 -59 -29
-86 0 -13 15 -26 19 -46 15 -21 -4 -26 -2 -21 9 6 16 16 18 50 9 13 -4 20 -11
17 -16 -4 -6 2 -6 13 1 11 6 23 7 27 4 3 -3 6 -1 6 5 0 6 -4 14 -10 17 -5 3
-10 10 -10 16 0 13 34 11 49 -3 6 -7 24 -14 39 -14 48 -3 107 -17 114 -27 4
-7 12 -6 22 2 13 11 16 11 16 -3 0 -8 11 -23 25 -32 24 -16 27 -16 40 2 18 25
0 47 -32 41 -16 -3 -23 0 -20 7 3 8 -21 19 -64 30 -38 10 -76 24 -83 32 -8 8
-22 11 -30 8 -9 -3 -24 -3 -33 1 -19 8 -29 10 -78 14 l-30 3 37 11 c34 11 36
13 22 31 -20 27 -18 38 6 31 11 -3 63 -8 117 -10 56 -3 99 -9 101 -15 3 -7 9
-7 18 1 25 20 -1 36 -56 33 -36 -2 -55 2 -67 14 -9 10 -20 18 -25 18 -4 1 -12
2 -18 3 -5 0 -9 11 -7 22 1 12 -3 24 -10 26 -7 3 -9 -3 -6 -17 6 -23 -13 -43
-31 -32 -6 3 -30 5 -54 3 -44 -3 -44 -2 -38 24 6 25 5 27 -16 22 -13 -4 -28
-3 -33 1 -16 11 -16 32 -1 32 8 0 16 5 18 12 3 8 20 11 49 9 24 -2 54 -3 67
-3 12 0 22 -5 22 -10 0 -6 6 -5 15 2 18 15 19 26 3 28 -7 0 -31 3 -53 5 -22 3
-48 5 -58 6 -11 1 -15 6 -11 13 7 11 -10 9 -50 -8 -14 -5 -17 -4 -12 5 6 9 0
10 -21 5 -15 -4 -35 -10 -44 -15 -22 -11 -31 -1 -19 22 7 12 7 20 0 24 -5 3
-10 -2 -10 -12 0 -20 -35 -47 -49 -38 -5 2 -14 -2 -21 -10 -18 -21 -39 -19
-61 8 -13 14 -17 16 -13 5 6 -17 -2 -18 -43 -4 -24 8 -31 30 -13 41 6 3 10 11
10 18 0 8 -3 8 -11 0 -19 -19 -46 14 -31 38 16 25 15 29 -8 29 -16 0 -20 -7
-20 -30 0 -30 -24 -43 -33 -17 -2 6 -7 9 -11 5 -4 -3 -1 -16 6 -28 9 -16 10
-24 2 -27 -6 -2 -19 -10 -29 -17 -18 -13 -17 -14 3 -36 12 -13 25 -20 29 -17
3 4 1 7 -6 7 -7 0 -10 4 -7 9 8 13 85 23 103 12 13 -7 9 -11 -20 -20 -20 -7
-42 -9 -49 -6 -7 4 1 -4 17 -19 17 -14 25 -25 20 -26 -6 0 -16 5 -22 12 -7 6
-27 11 -45 12 -22 1 -33 6 -33 16 0 8 -8 14 -16 12 -13 -2 -15 4 -11 25 6 35
-3 28 -28 -23 -10 -21 -19 -33 -20 -26 0 6 -6 12 -14 12 -8 0 -17 -6 -19 -12
-3 -8 -6 -6 -6 5 -1 26 -15 20 -29 -13 -9 -18 -21 -30 -33 -30 -10 0 -29 -11
-41 -25 -11 -13 -25 -22 -30 -19 -4 3 -8 1 -8 -4 0 -9 -40 -20 -80 -24 -8 0
-21 -6 -29 -12 -12 -9 -13 -6 -7 17 5 20 2 29 -8 33 -8 3 -13 11 -10 19 3 7
-2 20 -11 28 -9 9 -15 20 -14 24 3 11 57 43 73 43 7 0 20 10 28 22 14 21 16
22 33 5 11 -12 15 -26 11 -43 -7 -25 -29 -24 -24 1 2 8 -1 13 -7 12 -5 -1 -9
-13 -7 -27 3 -20 1 -23 -9 -12 -7 6 -22 12 -33 12 -17 0 -21 -6 -21 -36 0 -30
3 -34 20 -29 11 4 29 7 40 8 27 3 81 75 66 90 -14 14 -15 40 -1 32 6 -3 10 -1
10 4 0 6 -15 11 -32 11 -29 1 -31 2 -14 12 28 16 66 51 66 60 0 5 -13 6 -30 3
-17 -3 -30 -1 -30 5 0 5 -8 10 -17 10 -17 -1 -17 -1 0 -14z m-330 -158 c3 -10
7 -10 17 -1 17 15 40 5 40 -18 0 -13 5 -17 17 -12 12 5 14 3 8 -7 -6 -10 -4
-12 10 -7 26 11 49 -11 33 -31 -11 -13 -9 -14 17 -8 l30 6 -28 -25 c-19 -17
-23 -25 -13 -25 9 0 16 5 16 10 0 17 32 11 46 -7 9 -14 10 -21 1 -32 -9 -11
-9 -15 1 -18 22 -8 13 -33 -12 -33 -13 0 -31 -3 -40 -6 -9 -3 -16 -1 -16 6 0
6 4 9 9 6 4 -3 17 2 27 10 18 14 16 15 -21 9 l-40 -7 19 21 c11 12 27 21 38
21 10 0 18 4 18 10 0 6 -10 6 -27 -1 -14 -5 -32 -8 -38 -5 -7 2 -29 -9 -50
-26 -43 -36 -102 -68 -109 -60 -8 7 26 31 44 32 9 0 27 12 41 28 15 15 38 35
53 45 32 22 27 36 -11 29 -16 -3 -22 -7 -15 -9 22 -8 13 -20 -26 -32 -45 -15
-82 -12 -99 9 -11 13 -12 13 -13 -2 0 -10 -5 -18 -11 -18 -6 0 -8 7 -5 16 3 9
6 20 6 25 0 5 12 7 26 5 25 -5 26 -3 20 29 -4 19 -2 36 4 40 5 3 10 15 10 26
0 21 16 26 23 7z m1045 -594 c-2 -10 10 -24 30 -36 33 -18 34 -18 52 4 11 13
19 18 20 11 0 -6 -5 -15 -11 -18 -7 -5 -4 -14 7 -26 16 -18 18 -18 30 -1 7 9
14 12 14 5 0 -26 30 -42 70 -38 30 3 40 1 40 -10 0 -8 -5 -15 -12 -15 -9 0 -9
-3 0 -12 10 -10 15 -10 22 2 8 12 10 10 10 -7 0 -14 6 -23 15 -23 10 0 15 -10
15 -31 0 -27 3 -30 22 -23 21 6 21 5 9 -10 -11 -13 -11 -20 -3 -28 7 -7 12
-21 12 -31 0 -18 2 -18 24 -4 30 20 36 14 29 -28 -7 -43 12 -78 38 -70 19 6
19 3 13 -44 -6 -50 1 -62 23 -40 6 6 16 8 22 5 15 -10 14 -36 -2 -36 -21 0
-38 -22 -27 -35 5 -6 7 -21 4 -32 -5 -16 -13 -21 -34 -21 -23 1 -31 8 -40 32
-12 31 -31 79 -68 168 -12 26 -29 49 -40 52 -23 8 -36 32 -22 41 15 9 50 -18
50 -38 0 -12 6 -17 17 -15 20 4 27 38 8 38 -24 0 -55 42 -55 73 0 24 -2 27
-14 18 -11 -10 -16 -9 -24 5 -6 11 -11 13 -16 5 -9 -15 15 -39 33 -33 8 3 11
0 7 -7 -10 -16 -28 -13 -53 8 -25 21 -29 37 -11 43 7 3 9 12 5 22 -6 15 -10
16 -22 6 -15 -12 -55 -5 -55 11 0 5 -9 9 -19 9 -11 0 -23 5 -26 10 -3 6 -14
10 -23 10 -10 0 -23 9 -30 20 -7 12 -20 19 -30 18 -9 -2 -16 3 -15 9 2 9 -6
11 -27 6 -19 -3 -30 -1 -30 6 0 6 8 11 18 11 13 0 10 6 -13 25 -28 23 -29 24
-7 25 13 0 22 -6 22 -15 0 -8 5 -15 11 -15 6 0 9 6 6 13 -5 15 10 47 24 47 5
0 9 -7 7 -16z m-105 -101 c-4 -10 -13 -22 -20 -26 -7 -5 -11 -12 -8 -18 9 -13
25 -11 25 4 0 7 8 17 18 23 24 16 63 -9 44 -28 -18 -18 -14 -32 5 -17 15 12
16 12 10 -3 -9 -25 10 -23 23 2 13 25 33 27 26 3 -3 -10 -2 -24 3 -32 10 -16
35 -5 28 13 -3 9 6 13 26 13 18 0 26 -2 19 -5 -18 -6 -44 -60 -32 -67 6 -3 10
0 10 8 0 23 34 49 48 35 8 -8 7 -14 -6 -24 -9 -7 -14 -16 -9 -20 4 -4 13 -2
19 4 7 7 16 12 21 12 14 0 -4 -21 -27 -30 -17 -7 -17 -9 -3 -9 9 -1 17 -7 18
-13 0 -7 3 -25 5 -40 4 -25 2 -28 -23 -27 -23 0 -25 2 -9 8 11 4 20 15 22 25
2 13 -1 15 -11 6 -8 -7 -19 -9 -24 -5 -6 3 -20 1 -32 -5 -14 -8 -25 -8 -31 -2
-7 7 -3 12 11 17 25 7 27 23 6 31 -8 4 -15 12 -15 20 0 8 -4 14 -10 14 -17 0
-11 -27 7 -34 14 -6 14 -8 -3 -21 -17 -12 -22 -11 -45 11 -35 33 -119 57 -119
34 0 -5 3 -9 8 -9 29 5 36 -3 16 -19 -30 -23 -42 -64 -19 -60 19 3 44 -27 32
-38 -4 -4 -15 0 -25 9 -10 10 -21 14 -25 11 -3 -4 -13 1 -22 10 -22 22 -45 20
-45 -4 0 -11 7 -20 16 -20 8 0 12 -5 9 -11 -5 -7 -12 -6 -23 3 -29 23 -61 38
-81 38 -10 0 -24 6 -30 14 -13 16 -94 36 -143 36 -17 0 -29 3 -25 6 3 4 0 13
-8 21 -14 14 -21 43 -10 43 3 0 10 -11 15 -25 11 -30 40 -33 40 -5 0 24 15 25
54 5 39 -20 46 -19 46 10 0 18 4 23 15 19 8 -4 15 -14 15 -24 0 -11 5 -22 10
-25 6 -3 10 -16 11 -28 0 -21 1 -21 8 -2 5 11 14 20 22 20 8 0 15 10 17 23 2
14 10 22 22 22 10 0 22 5 25 10 3 6 13 10 22 10 14 0 14 -3 -2 -20 -10 -11
-24 -20 -32 -20 -15 0 -17 -16 -3 -25 13 -8 42 14 34 26 -3 5 2 9 10 9 9 0 16
4 16 8 0 4 15 13 33 21 22 9 27 14 17 18 -8 3 -22 12 -31 20 -14 12 -17 12
-23 -2 -5 -15 -8 -15 -21 -1 -9 8 -22 13 -30 9 -15 -5 -45 13 -45 27 0 4 7 10
15 14 8 3 14 0 12 -6 -1 -7 13 -12 35 -13 29 -1 39 4 47 23 6 13 15 21 20 17
5 -3 12 -1 16 5 10 17 25 11 18 -7z m-1063 -13 c9 -6 17 -5 22 3 12 19 22 -1
20 -39 -2 -23 1 -33 8 -29 6 3 8 11 5 16 -4 5 -2 9 2 9 5 0 14 -9 21 -20 l12
-20 22 20 c16 15 25 17 35 8 7 -6 11 -19 8 -29 -4 -11 -2 -19 4 -19 6 0 11 5
11 12 0 6 11 1 25 -12 27 -25 34 -60 12 -60 -22 0 -74 44 -69 58 3 10 -5 12
-34 6 -49 -9 -51 -11 -31 -31 11 -11 17 -13 17 -5 0 7 9 12 20 12 21 0 50 -45
50 -79 0 -17 5 -20 29 -15 21 4 29 2 28 -7 -1 -34 4 -49 18 -49 8 0 15 -5 15
-11 0 -8 4 -8 14 0 18 15 34 -5 18 -21 -6 -6 -8 -26 -5 -44 5 -29 3 -34 -13
-34 -11 0 -28 7 -38 15 -28 21 -63 19 -71 -5 -3 -11 -12 -20 -20 -20 -7 0 -16
-8 -18 -17 -3 -10 -5 8 -6 40 0 32 3 57 9 57 6 0 10 -10 10 -22 0 -17 3 -19
12 -10 17 17 67 15 86 -5 16 -16 17 -15 21 2 2 11 -2 21 -8 23 -6 2 -11 12
-11 23 0 10 -4 19 -10 19 -5 0 -10 -4 -10 -10 0 -5 -7 -7 -15 -4 -8 4 -15 1
-15 -5 0 -6 -7 -8 -15 -5 -8 3 -13 16 -12 27 1 16 -4 23 -19 25 -17 2 -23 -4
-27 -26 -6 -29 -30 -47 -48 -36 -16 9 -10 24 7 17 12 -4 15 -1 12 13 -2 14
-11 19 -33 17 -17 0 -24 1 -18 4 10 3 10 10 2 25 -12 22 -14 22 36 2 10 -4 15
0 15 10 0 9 5 16 10 16 6 0 10 -4 10 -10 0 -5 9 -10 19 -10 11 0 23 -4 26 -10
3 -5 13 -10 21 -10 8 0 -5 19 -30 45 -51 50 -56 53 -56 27 0 -28 -20 -43 -42
-31 -23 13 -25 51 -1 42 20 -8 13 5 -34 65 -28 35 -32 43 -19 48 20 8 21 33 1
40 -15 6 -21 24 -7 24 4 0 14 -4 22 -10z m450 -156 c0 -8 4 -14 10 -14 5 0 12
-11 16 -25 3 -14 11 -25 16 -25 6 0 7 7 4 16 -6 16 26 49 49 49 6 0 16 4 23 9
7 4 16 5 19 2 4 -3 1 -6 -5 -6 -7 0 -12 -7 -12 -15 0 -8 6 -15 14 -15 9 0 12
-8 9 -24 -7 -33 39 -41 89 -16 25 13 39 16 44 9 4 -6 1 -15 -6 -19 -9 -6 -9
-9 0 -15 6 -4 20 2 31 14 23 25 20 24 56 9 15 -6 34 -10 41 -9 6 1 12 -7 12
-19 0 -11 -4 -20 -10 -20 -5 0 -10 5 -10 10 0 16 -21 12 -37 -7 -8 -10 -12
-12 -8 -5 3 7 3 22 0 33 l-7 21 -22 -21 c-12 -12 -29 -21 -37 -21 -19 -1 31
-39 51 -40 23 0 54 -40 42 -52 -7 -7 -14 -3 -22 12 -11 20 -13 20 -35 6 -27
-18 -65 -21 -65 -6 0 6 6 13 14 16 8 3 12 12 9 20 -3 9 -12 13 -21 9 -8 -3
-21 0 -30 7 -12 10 -16 10 -19 1 -3 -7 -10 -13 -18 -13 -7 0 -18 -7 -25 -15
-10 -13 -9 -15 9 -15 29 0 27 -28 -4 -42 -30 -13 -43 -5 -25 17 10 12 10 15
-3 15 -19 0 -34 -19 -39 -49 -5 -37 -32 -49 -58 -26 -12 11 -36 26 -53 35 -18
8 -32 22 -32 30 0 8 -10 16 -22 18 -29 4 -30 32 -2 32 17 0 20 5 17 25 -4 19
-1 25 12 25 9 0 20 -3 24 -7 4 -5 17 -8 29 -8 12 0 22 -7 23 -15 4 -52 3 -51
26 -38 12 7 28 19 36 26 25 23 24 12 -2 -22 -28 -37 -31 -46 -18 -46 5 0 14
11 22 24 7 13 21 27 32 29 31 8 18 39 -17 43 -27 3 -51 11 -98 36 -10 5 -22 6
-27 3 -6 -4 -10 -1 -10 4 0 6 5 11 10 11 6 0 10 7 10 15 0 8 -4 15 -10 15 -5
0 -10 12 -10 26 0 14 4 23 10 19 6 -3 10 -13 10 -21z"/>
<path d="M4880 3846 c0 -14 5 -28 10 -31 6 -3 10 -14 10 -23 0 -10 11 -33 24
-52 13 -20 25 -43 27 -52 6 -24 162 -138 171 -124 7 10 12 2 9 -16 -1 -11 222
-230 255 -251 22 -13 11 25 -32 120 -13 28 -24 60 -24 70 0 10 -7 27 -15 37
-8 11 -13 28 -9 38 3 10 -4 31 -15 47 -12 16 -21 35 -22 43 0 7 -16 26 -35 42
-29 23 -37 26 -50 16 -11 -10 -18 -10 -26 -2 -21 21 -48 14 -48 -11 0 -13 -5
-28 -10 -33 -8 -8 -6 -15 5 -24 30 -25 12 -57 -26 -45 -16 5 -18 10 -8 21 6 8
7 14 2 14 -13 0 -43 55 -43 79 0 15 -4 19 -17 14 -10 -3 -15 -3 -11 1 7 8 2
14 -72 94 -46 49 -50 51 -50 28z"/>
<path d="M5380 3703 c1 -23 19 -46 48 -62 12 -6 22 -18 22 -26 0 -8 9 -20 20
-27 11 -7 20 -19 20 -26 0 -7 18 -35 40 -61 22 -26 40 -55 40 -64 0 -21 -39
-67 -56 -67 -22 0 -27 -21 -14 -61 12 -36 40 -54 40 -26 0 6 5 4 11 -5 12 -21
35 -24 37 -5 0 6 5 35 9 62 8 48 9 50 38 46 17 -2 41 -5 55 -6 46 -4 50 -5 50
-15 0 -5 -9 -10 -20 -10 -25 0 -25 -8 1 -36 17 -18 19 -26 9 -44 -10 -18 -9
-24 6 -35 17 -12 16 -13 -5 -20 -15 -4 -20 -12 -17 -22 4 -9 2 -21 -4 -28 -11
-14 3 -31 18 -22 4 3 13 -1 20 -9 11 -12 9 -14 -7 -14 -11 0 -23 5 -26 10 -12
20 -27 10 -21 -14 9 -34 -15 -51 -37 -26 -9 11 -22 20 -29 20 -16 0 42 -49 58
-50 6 0 17 -6 24 -14 6 -8 17 -13 25 -10 7 3 16 1 20 -5 10 -18 25 -12 25 9 0
20 16 28 22 10 2 -6 19 -4 43 5 22 8 53 14 68 15 34 0 67 16 67 33 0 7 7 25
15 40 26 50 53 267 33 267 -5 0 -6 -5 -2 -12 5 -8 2 -9 -9 -5 -13 5 -17 1 -17
-18 0 -13 -5 -27 -10 -30 -6 -3 -7 -17 -4 -29 4 -18 0 -25 -18 -31 -13 -4 -33
-6 -44 -5 -17 1 -21 -5 -21 -27 0 -15 -3 -36 -8 -45 -4 -10 -5 -24 -2 -32 3
-8 -1 -13 -11 -12 -10 1 -17 -7 -18 -21 -1 -21 -52 -78 -62 -68 -2 2 5 25 18
51 20 43 20 48 5 56 -12 7 -13 13 -5 23 7 8 9 24 4 37 -4 12 -8 58 -9 100 -2
43 -8 84 -14 92 -7 8 -11 20 -10 28 6 29 -13 86 -35 107 l-23 22 -6 -22 c-6
-22 -7 -22 -26 -5 -11 10 -25 15 -30 11 -6 -3 -13 0 -15 7 -16 53 -15 52 -36
27 l-19 -24 -1 45 c0 25 -4 50 -8 57 -13 21 -62 33 -138 33 -64 0 -74 -2 -74
-17z"/>
<path d="M4193 3583 c3 -13 1 -23 -3 -23 -5 0 -11 8 -13 18 -3 9 -5 -8 -5 -38
1 -49 1 -51 8 -20 9 41 10 39 14 -17 1 -23 -2 -39 -7 -36 -4 3 -11 -5 -14 -17
-3 -12 -11 -19 -19 -16 -8 3 -14 -5 -17 -22 -2 -15 -5 0 -7 33 -2 35 -5 47 -7
30 -7 -53 -16 -63 -24 -25 -4 21 -6 -9 -5 -77 2 -62 -1 -118 -6 -125 -4 -7 -9
43 -10 112 -1 84 -3 101 -5 53 -2 -43 -8 -73 -15 -73 -5 0 -8 10 -5 23 3 12 1
56 -3 97 l-7 75 -3 -80 -3 -80 -7 55 -7 55 -2 -55 -3 -55 -13 55 c-12 52 -21
42 -16 -18 1 -12 -3 -30 -8 -40 -7 -13 -9 -5 -7 31 1 26 -2 51 -7 54 -5 3 -7
14 -4 24 3 11 0 19 -6 18 -23 -1 -72 -36 -83 -58 -8 -16 -13 -19 -17 -9 -3 7
-6 1 -6 -14 -1 -32 -17 -46 -24 -21 -5 21 -10 -28 -7 -67 3 -36 -12 -17 -21
27 -6 31 -7 25 -6 -30 1 -37 -1 -67 -5 -67 -5 0 -8 14 -8 31 0 27 -3 30 -27
27 -39 -4 -52 -38 -48 -122 2 -51 0 -65 -7 -52 -6 11 -8 54 -5 105 7 109 12
137 32 185 9 21 14 41 11 43 -9 9 -58 -28 -63 -48 -3 -10 -9 -19 -14 -19 -5 0
-9 -12 -9 -28 0 -15 -7 -38 -16 -50 -14 -21 -14 -79 2 -103 3 -5 -1 -12 -10
-15 -8 -3 -12 -12 -9 -20 3 -8 0 -14 -7 -14 -9 0 -9 -4 -2 -12 5 -7 12 -24 14
-38 2 -14 9 -24 15 -23 6 1 11 -12 10 -33 l-1 -35 -15 26 c-23 37 -32 31 -15
-10 17 -42 17 -46 2 -40 -9 3 -13 -5 -14 -22 -1 -16 -2 -39 -3 -53 -2 -14 0
-36 4 -50 5 -19 4 -22 -4 -10 -8 11 -9 5 -4 -22 4 -26 2 -38 -6 -38 -8 0 -10
-8 -6 -19 3 -11 2 -22 -4 -25 -11 -7 -3 -44 13 -65 9 -12 8 -13 -7 -8 -15 6
-16 2 -11 -35 5 -26 3 -39 -3 -35 -14 9 -33 -60 -30 -115 3 -64 -12 -79 -28
-28 -7 22 -6 23 9 11 21 -18 21 -3 -2 61 -19 52 -18 52 -90 7 -19 -12 -24 -12
-31 0 -7 11 -11 9 -21 -9 -8 -15 -8 -20 -1 -16 6 4 11 3 11 -2 0 -5 -11 -15
-25 -22 -14 -7 -25 -17 -25 -22 0 -4 -11 -8 -24 -8 -14 0 -27 -4 -31 -9 -3 -5
-19 -9 -35 -9 -60 2 -27 58 35 58 19 0 29 8 38 28 18 42 48 82 57 77 6 -4 6
128 0 145 -1 3 -3 10 -4 15 -7 53 -42 155 -54 155 -9 0 -11 7 -7 23 4 14 3 18
-3 9 -5 -7 -13 -12 -18 -11 -13 3 -61 -18 -68 -30 -4 -5 -2 -12 4 -16 5 -3 10
-2 10 3 0 13 27 23 45 16 24 -10 17 -34 -15 -52 -16 -9 -30 -22 -30 -29 0 -6
-10 -15 -22 -19 -13 -3 -36 -16 -51 -27 -23 -16 -28 -26 -25 -49 4 -23 -1 -33
-23 -49 -15 -10 -34 -16 -43 -13 -12 4 -16 0 -16 -15 0 -12 -4 -21 -10 -21 -5
0 -10 -4 -10 -10 0 -5 6 -10 14 -10 19 0 27 -25 13 -39 -7 -7 -12 -17 -13 -24
-2 -25 -17 -57 -25 -57 -5 0 -9 -8 -9 -18 0 -24 -19 -42 -37 -35 -19 7 -51
-23 -76 -72 -15 -31 -20 -60 -21 -130 0 -49 3 -110 7 -135 5 -25 10 -52 11
-60 1 -8 8 -28 14 -43 7 -16 12 -37 12 -48 0 -11 4 -28 10 -38 5 -10 11 -73
12 -139 l3 -121 -35 -36 c-18 -19 -39 -35 -46 -35 -14 0 -24 -23 -24 -57 0
-13 -6 -31 -13 -38 -8 -8 -16 -46 -20 -89 -3 -41 -9 -81 -13 -88 -5 -7 -7 -25
-5 -40 2 -27 -5 -33 -35 -29 -20 2 -33 -52 -44 -179 -5 -69 -12 -144 -16 -166
-5 -33 -1 -51 18 -85 14 -24 27 -53 30 -64 3 -11 9 -29 13 -40 6 -17 4 -17
-14 4 -12 13 -21 35 -21 49 0 16 -4 22 -9 16 -16 -17 -29 -167 -22 -249 4 -44
6 -82 4 -85 -21 -24 -37 149 -28 293 6 90 4 107 -13 140 -14 26 -22 33 -26 22
-3 -8 -2 -15 3 -15 4 0 8 -6 9 -12 0 -7 4 -23 7 -35 5 -14 3 -23 -3 -23 -6 0
-14 16 -18 35 -8 43 -54 103 -73 97 -10 -3 -12 0 -8 11 5 13 -2 17 -35 19 -35
3 -44 8 -57 35 -14 28 -21 33 -53 33 -20 0 -40 4 -43 10 -3 6 -19 10 -36 10
-16 0 -29 5 -29 10 0 6 -16 10 -35 10 -31 0 -35 -3 -35 -25 0 -22 -4 -25 -35
-25 -33 0 -35 2 -35 35 l0 35 50 0 50 0 0 34 c0 40 -8 66 -21 66 -5 0 -9 -11
-9 -25 0 -21 -5 -25 -31 -25 -23 0 -40 10 -66 38 -22 24 -36 33 -40 25 -2 -7
-18 -13 -34 -13 -19 0 -29 -5 -29 -15 0 -10 -11 -15 -35 -15 -24 0 -35 5 -35
15 0 13 -22 15 -134 15 -98 0 -136 3 -139 13 -4 8 -14 3 -31 -15 -28 -32 -36
-34 -36 -13 0 10 -10 15 -31 15 -22 0 -32 6 -36 18 -3 13 -13 18 -31 17 -24
-1 -28 -6 -32 -40 -5 -39 -6 -40 -47 -43 -31 -2 -48 -10 -62 -28 -22 -28 -31
-30 -31 -9 0 20 -73 20 -90 0 -7 -8 -19 -15 -27 -15 -8 0 -11 -5 -8 -10 4 -6
-10 -10 -34 -10 -23 0 -41 5 -41 10 0 6 -16 10 -35 10 -31 0 -35 3 -35 25 0
21 -5 25 -32 25 -26 1 -39 9 -63 40 -30 40 -47 50 -42 27 1 -6 -5 -12 -13 -12
-8 0 -15 9 -15 20 0 24 -18 45 -39 45 -9 0 -21 9 -28 20 -7 11 -18 20 -25 20
-7 0 -13 9 -13 20 0 16 -7 20 -34 20 -45 0 -66 -22 -66 -71 0 -21 -4 -39 -10
-39 -6 0 -10 -32 -10 -76 0 -48 -4 -73 -10 -69 -6 4 -7 12 -3 18 4 7 0 7 -10
-1 -9 -8 -19 -22 -22 -32 -10 -31 -30 -30 -70 3 -70 58 -101 93 -116 125 -8
18 -21 32 -31 32 -12 0 -18 8 -18 21 0 22 -22 49 -40 49 -6 0 -23 9 -38 19
-30 22 -39 24 -94 22 -31 -1 -38 -5 -38 -21 0 -13 -7 -20 -20 -20 -26 0 -48
-20 -44 -40 4 -17 -23 -53 -48 -63 -10 -3 -18 -13 -18 -22 0 -11 -10 -15 -35
-15 l-35 0 0 -605 0 -605 3686 0 c2342 0 3683 3 3679 10 -3 5 -12 7 -20 3 -9
-3 -15 1 -15 11 0 9 -6 13 -14 10 -16 -6 -26 24 -26 76 0 20 -5 41 -10 46 -6
6 -13 42 -15 80 -4 47 -2 63 4 49 8 -16 10 -12 9 20 -1 58 -12 103 -21 87 -5
-7 -13 -9 -19 -6 -6 4 -14 0 -19 -7 -7 -11 -9 -9 -9 7 0 17 -5 21 -25 19 -14
-2 -26 1 -26 6 -3 19 -5 24 -12 36 -5 7 -6 17 -2 22 6 11 57 6 84 -9 17 -8 25
-6 41 10 11 11 20 17 20 12 0 -4 4 -2 8 3 4 6 17 15 29 22 17 10 23 10 27 0 3
-7 3 -1 0 12 -4 16 -3 21 5 17 6 -4 11 -2 11 4 0 7 6 10 14 7 10 -4 12 0 8 16
-5 20 -4 20 11 8 15 -12 17 -11 17 5 0 16 2 17 10 4 9 -13 11 -13 20 0 6 10
10 11 10 3 0 -7 5 -13 11 -13 7 0 8 7 4 17 -4 10 -9 27 -12 38 l-4 20 16 -20
c17 -20 17 -19 11 6 -5 22 -2 28 15 32 18 5 21 11 16 36 -6 28 7 45 15 21 3
-9 9 59 12 137 0 17 4 29 7 27 4 -2 9 17 13 43 3 26 2 49 -3 52 -5 4 -11 24
-13 46 -2 30 -7 40 -20 39 -9 -1 -15 4 -12 10 2 6 0 25 -5 41 -9 28 -9 29 -10
5 -1 -19 -4 -21 -10 -11 -18 28 -57 -82 -52 -148 2 -22 -1 -31 -8 -27 -7 5
-11 -4 -11 -23 0 -21 -4 -29 -14 -25 -9 4 -15 -8 -19 -41 -4 -25 -16 -64 -27
-87 -11 -23 -25 -71 -31 -107 -7 -36 -18 -79 -25 -96 -12 -27 -13 -19 -9 70 4
107 20 219 25 175 2 -14 6 7 9 45 4 39 4 87 0 108 -3 20 -2 37 2 37 5 0 9 -11
9 -24 0 -14 5 -28 10 -31 6 -4 10 5 10 20 0 14 4 33 9 43 19 34 24 58 23 105
0 26 4 44 9 41 5 -3 9 1 9 10 0 8 5 16 10 18 6 2 13 28 16 58 4 36 2 50 -4 42
-7 -11 -10 -10 -16 3 -3 9 -6 24 -5 33 0 14 2 13 9 -3 l9 -20 0 20 c1 28 -17
148 -25 171 -4 11 -3 16 2 11 5 -5 15 -27 21 -50 l13 -42 -6 40 c-3 22 -8 48
-11 59 -4 13 -2 16 7 11 10 -6 12 0 7 25 -4 18 -7 47 -7 64 0 24 -3 27 -10 16
-8 -12 -10 -11 -10 7 0 12 -4 25 -10 28 -5 3 -10 18 -11 33 l-1 27 -8 -25 -8
-25 -1 28 c-1 25 -3 26 -21 17 -17 -9 -20 -8 -20 9 0 22 -26 36 -34 18 -2 -7
-5 7 -5 31 -1 23 -5 42 -11 42 -5 0 -11 12 -11 28 l-1 27 -7 -30 c-9 -40 -20
-21 -28 47 -6 48 -8 50 -14 23 -6 -27 -7 -28 -8 -5 0 14 3 31 8 39 7 11 10 9
16 -8 3 -12 11 -19 16 -16 5 4 9 -3 9 -14 0 -11 5 -23 11 -27 8 -4 9 4 5 27
-3 19 -3 28 0 20 4 -9 11 0 20 25 15 44 10 81 -10 65 -9 -8 -13 0 -15 35 -1
30 2 44 8 39 6 -3 9 0 6 7 -2 7 -6 30 -9 51 -2 22 -13 51 -25 65 -12 15 -24
35 -28 45 -3 10 -11 16 -18 13 -7 -2 -18 8 -25 22 -9 19 -14 23 -18 13 -3 -8
-19 21 -37 63 -18 43 -41 88 -51 99 -10 12 -32 46 -49 76 -16 30 -34 54 -40
53 -5 0 -15 4 -22 10 -8 7 -15 -1 -22 -28 -8 -30 -7 -41 4 -54 8 -9 15 -21 15
-26 0 -6 12 -34 26 -63 20 -39 24 -55 15 -64 -8 -8 -11 -6 -11 7 0 10 -10 35
-22 55 -13 20 -21 36 -19 36 2 0 -3 13 -11 29 l-15 30 -16 -30 c-15 -29 -15
-28 -12 31 2 33 8 76 14 95 14 46 13 50 -5 20 l-15 -25 5 35 c4 31 4 32 -6 13
-18 -37 -28 -26 -12 12 8 19 10 35 5 35 -20 0 -45 -91 -27 -102 6 -4 1 -6 -12
-5 -25 1 -27 9 -11 39 6 11 12 33 13 47 1 14 6 37 10 50 6 16 5 21 -3 17 -6
-4 -11 -13 -11 -20 0 -15 -39 -106 -45 -106 -4 0 6 34 33 110 28 77 37 124 23
115 -12 -7 -10 22 4 58 4 9 3 23 -3 30 -7 8 -5 24 9 51 13 27 16 43 9 51 -6 7
-8 21 -5 31 4 12 2 11 -6 -3 -14 -27 -34 -31 -24 -5 16 41 17 78 1 91 -9 7
-16 19 -16 26 0 7 -7 15 -15 19 -18 7 -18 7 -1 -35 7 -19 11 -42 7 -53 -7 -17
-8 -17 -24 -1 -14 13 -18 14 -22 2 -3 -7 -1 -26 5 -41 12 -33 14 -213 1 -220
-14 -9 -32 20 -25 39 7 18 -33 105 -48 105 -5 0 -8 10 -8 21 0 17 -3 19 -14
10 -10 -8 -16 -40 -19 -99 -2 -48 -10 -123 -16 -167 -13 -85 -11 -267 4 -299
7 -16 5 -18 -8 -13 -8 3 -20 0 -25 -6 -21 -25 -34 -137 -35 -286 -1 -86 -3
-135 -5 -108 -1 26 -6 47 -10 47 -4 0 -7 40 -6 89 1 50 -2 89 -5 88 -15 -5
-13 18 9 103 5 19 12 58 15 85 l5 50 -15 -40 c-8 -22 -15 -49 -16 -60 -1 -16
-2 -17 -6 -3 -2 9 3 40 11 69 9 29 16 62 16 73 -1 19 -2 19 -16 -4 -15 -24
-15 -24 -8 15 12 76 23 170 19 173 -3 4 -7 -14 -20 -92 -5 -31 -12 -43 -21
-34 -3 4 -1 23 5 45 6 21 11 49 10 63 0 23 -1 23 -9 5 -5 -11 -9 -34 -9 -52
-1 -17 -6 -35 -11 -38 -7 -4 -9 2 -6 17 12 58 16 103 7 82 -14 -33 -33 -41
-21 -9 6 15 10 36 10 48 -1 22 -1 22 -15 3 -14 -19 -15 -19 -15 8 0 15 -4 25
-10 21 -6 -4 -10 7 -10 26 0 26 -2 29 -14 20 -12 -10 -15 -3 -21 39 -4 27 -11
50 -16 50 -5 0 -9 13 -9 29 0 17 -4 33 -10 36 -5 3 -10 18 -10 32 l0 27 -20
-22 c-11 -12 -20 -25 -20 -31 0 -5 -7 -12 -16 -15 -9 -3 -14 -13 -11 -20 3 -8
-1 -20 -9 -26 -8 -7 -14 -21 -14 -31 0 -11 -4 -19 -10 -19 -5 0 -10 -9 -10
-19 0 -11 -4 -23 -10 -26 -5 -3 -10 -15 -10 -26 0 -11 -7 -22 -15 -25 -8 -4
-15 -12 -15 -20 0 -8 -10 -31 -23 -52 -13 -20 -27 -44 -30 -52 -4 -8 -16 -28
-27 -45 -10 -16 -31 -54 -45 -82 -15 -29 -31 -53 -36 -53 -5 0 -9 -6 -9 -13 0
-12 -50 -95 -80 -131 -48 -58 -133 -136 -154 -142 -42 -10 -48 -2 -27 37 11
20 17 40 13 43 -3 4 0 11 8 16 8 5 15 14 15 20 0 6 7 15 15 20 26 16 2 23 -55
15 l-56 -7 7 -34 c4 -24 2 -34 -6 -34 -7 0 -10 7 -6 15 3 8 1 15 -4 15 -12 0
-12 -2 -1 -57 5 -24 4 -43 0 -43 -5 0 -9 11 -9 25 0 13 -4 34 -9 47 -5 13 -12
32 -15 42 -4 10 -8 17 -11 14 -2 -2 2 -26 10 -53 15 -50 20 -93 9 -82 -4 4
-15 39 -25 79 -18 74 -25 68 -10 -9 10 -50 5 -56 -10 -13 -6 16 -15 27 -20 24
-6 -3 -7 6 -4 23 4 22 3 24 -4 8 l-9 -20 -4 20 c-3 12 -5 9 -3 -7 2 -35 -12
-37 -21 -3 -6 26 -23 34 -25 13 -1 -7 -5 -2 -9 12 -8 25 -8 25 -9 -5 l-2 -30
-14 25 c-13 22 -14 23 -15 5 -1 -18 -2 -17 -15 5 -13 22 -14 23 -15 5 -1 -17
-2 -18 -13 -5 -14 18 -47 22 -47 6 -1 -6 -7 0 -15 14 -8 14 -14 19 -15 12 0
-22 -20 -2 -21 21 -1 20 -2 20 -9 -3 -7 -26 -13 -20 -23 25 -4 17 -5 17 -6 -3
-1 -28 -21 -19 -21 9 0 10 -4 19 -10 19 -5 0 -6 -7 -3 -17 4 -11 3 -14 -5 -9
-7 4 -12 17 -13 29 -1 21 -2 20 -9 -3 l-8 -25 -7 23 c-4 12 -12 22 -17 22 -5
0 -6 -6 -2 -12 5 -9 4 -10 -4 -3 -6 6 -15 26 -20 45 l-10 35 -2 -40 c-2 -31
-3 -35 -8 -17 -4 13 -11 22 -15 20 -5 -2 -15 11 -22 27 l-13 30 -2 -35 c-2
-36 -4 -34 -14 12 -4 19 -11 26 -21 22 -10 -4 -15 0 -16 12 0 17 -1 17 -8 -1
l-8 -20 -5 20 c-5 16 -6 17 -7 3 -2 -28 -21 -21 -21 6 0 32 -20 45 -21 14 -1
-23 -1 -23 -9 2 -7 21 -8 22 -10 5 -1 -19 -2 -19 -12 3 -6 12 -17 22 -25 22
-7 0 -13 8 -13 18 0 14 -2 15 -10 2 -7 -12 -13 -9 -34 13 -15 16 -31 25 -36
22 -6 -4 -10 11 -9 37 0 36 2 40 10 22 6 -11 34 -31 62 -44 29 -12 54 -24 57
-25 3 -2 15 -6 28 -10 12 -4 22 -11 22 -15 0 -4 28 -15 63 -25 34 -11 65 -23
68 -28 3 -5 12 -7 20 -6 22 5 107 -22 120 -37 6 -8 16 -14 21 -14 5 0 16 -7
24 -15 9 -8 24 -15 35 -15 11 0 22 -7 25 -15 5 -13 9 -12 23 4 16 19 17 18 40
-15 31 -45 38 -37 10 10 l-21 36 21 -3 c28 -4 61 -32 61 -52 0 -8 5 -15 11
-15 6 0 2 16 -10 36 -24 40 -25 44 -12 44 5 0 14 -15 21 -32 7 -20 14 -28 17
-20 3 8 0 19 -6 25 -6 6 -11 18 -11 27 1 13 3 12 14 -2 7 -10 16 -18 19 -18 4
0 4 8 1 18 -5 14 -4 15 5 2 5 -8 8 -26 6 -40 -3 -14 -2 -19 1 -12 5 10 9 10
20 1 15 -12 20 1 5 17 -5 5 -12 20 -16 33 -5 17 -4 21 5 16 7 -4 17 -1 22 6 7
11 11 11 15 2 2 -7 12 -13 21 -13 10 0 34 -6 54 -13 32 -11 35 -14 20 -25 -15
-10 -15 -11 2 -5 12 4 17 3 13 -4 -4 -6 6 -13 24 -15 25 -4 30 -2 26 13 -4 15
-1 16 20 8 14 -5 29 -7 34 -4 5 3 28 10 51 14 41 8 41 9 10 10 -18 1 -42 -4
-54 -10 -23 -12 -39 -2 -18 11 13 9 13 10 0 10 -23 0 19 25 66 38 23 7 51 12
63 12 11 0 21 5 21 10 0 15 -20 12 -86 -11 -67 -23 -111 -35 -81 -21 10 4 26
21 37 37 11 17 20 26 20 22 0 -4 10 3 23 16 24 27 94 57 132 57 14 0 25 4 25
10 0 5 -6 8 -12 6 -7 -3 -33 -7 -58 -10 -45 -6 -45 -6 -15 8 35 17 19 21 -22
6 -24 -9 -26 -8 -11 3 10 8 14 18 10 22 -4 5 1 5 10 2 13 -4 15 -2 11 10 -5
13 -2 15 11 10 9 -4 15 -3 12 1 -3 5 23 17 57 27 74 21 100 40 42 29 -22 -4
-42 -10 -45 -14 -9 -13 -48 -21 -54 -11 -4 6 10 25 30 43 20 18 40 42 44 53
10 27 140 185 151 185 5 0 9 9 9 19 0 11 9 27 21 35 12 8 18 19 15 24 -3 6 9
34 28 62 35 54 91 99 123 101 16 0 16 1 -2 9 -21 8 -20 8 26 23 19 6 15 50 -6
67 -16 13 -66 -46 -115 -135 -18 -33 -46 -75 -61 -93 -16 -18 -29 -37 -29 -42
0 -5 -6 -15 -13 -22 -7 -7 -43 -49 -80 -93 -102 -121 -134 -152 -148 -138 -8
8 -8 13 0 17 6 4 11 12 11 18 0 7 -4 7 -14 -1 -10 -9 -16 -7 -27 5 -11 13 -9
22 11 59 27 50 22 65 -13 42 -15 -9 -29 -12 -37 -7 -8 5 -17 7 -20 5 -9 -5
-58 -15 -98 -20 -42 -5 -131 21 -158 46 -11 10 -23 19 -27 19 -4 0 -25 11 -47
25 -22 14 -40 23 -40 21 0 -3 -24 20 -54 50 -30 30 -62 54 -72 54 -10 0 -15 3
-11 6 11 12 -31 47 -49 40 -13 -5 -14 -4 -6 7 16 19 3 30 -16 14 -13 -10 -15
-9 -8 8 7 19 6 19 -10 3 -16 -16 -18 -15 -36 18 -10 19 -16 39 -13 45 4 5 -1
16 -9 25 -9 8 -16 12 -16 7 0 -5 5 -14 11 -20 7 -7 5 -12 -8 -17 -9 -4 -14 -4
-11 0 10 9 -29 47 -41 40 -7 -4 -8 -1 -5 8 3 9 11 16 17 16 6 0 7 3 4 7 -4 3
-16 -2 -27 -12 -19 -17 -20 -17 -20 0 0 15 -2 16 -17 4 -15 -12 -16 -12 -10 4
4 9 2 17 -4 17 -6 0 -8 7 -5 16 11 29 -14 3 -49 -52 -38 -59 -52 -71 -29 -25
19 38 10 56 -29 57 -17 1 -26 -1 -19 -3 6 -3 12 -12 12 -20 0 -9 6 -13 14 -10
10 4 12 0 9 -14 -4 -15 -8 -17 -19 -8 -11 9 -14 8 -14 -5 0 -9 -7 -16 -16 -16
-14 0 -14 3 -4 15 7 9 10 19 6 23 -6 6 -30 -23 -31 -38 0 -3 -4 -11 -9 -19 -7
-11 -5 -13 7 -8 20 7 21 3 6 -24 -5 -11 -15 -16 -21 -13 -6 4 -8 3 -4 -4 3 -6
-4 -27 -16 -48 -12 -20 -24 -32 -26 -26 -2 7 -8 10 -13 7 -5 -4 -3 -12 4 -20
10 -11 17 -8 44 23 18 20 30 30 27 21 -11 -32 24 -29 41 3 19 39 19 44 -2 27
-14 -12 -16 -12 -8 0 6 11 4 13 -9 8 -14 -6 -15 -3 -6 13 13 24 50 27 50 4 0
-8 4 -13 9 -10 5 4 11 0 14 -6 2 -7 11 2 21 20 9 17 22 32 28 32 7 0 6 -6 -3
-17 -23 -29 -51 -83 -42 -83 4 0 19 16 32 35 13 19 27 35 32 35 5 0 -12 -29
-37 -65 -25 -36 -47 -65 -49 -65 -2 0 -1 9 2 20 6 22 -12 28 -21 8 -4 -7 -4
-3 -2 10 2 12 0 20 -5 16 -5 -3 -9 -12 -9 -21 0 -12 -3 -13 -13 -4 -8 6 -17 8
-20 4 -4 -3 -7 -1 -7 7 0 10 -3 10 -15 0 -18 -15 -20 -37 -2 -43 6 -2 4 -3 -6
-1 -22 3 -54 -52 -34 -59 9 -4 9 -7 -1 -18 -10 -11 -15 -11 -20 -2 -6 9 -11 6
-21 -8 -7 -12 -8 -18 -3 -15 6 3 12 1 14 -6 3 -8 14 -2 31 16 34 36 45 29 15
-10 l-22 -29 27 24 c31 28 49 21 22 -9 -25 -27 -7 -25 23 3 l25 22 -12 -23
c-12 -22 -11 -23 11 -12 19 10 21 10 11 -1 -19 -19 -16 -34 3 -18 15 12 16 11
9 -11 -7 -22 -6 -23 9 -11 14 12 16 12 10 -4 -6 -14 -3 -16 14 -11 18 6 21 4
15 -10 -5 -12 -3 -15 6 -9 9 5 12 2 9 -10 -1 -10 -9 -20 -17 -23 -9 -3 -11 0
-6 7 5 9 -1 11 -23 8 -19 -3 -33 0 -35 6 -3 9 -8 9 -19 -1 -13 -10 -17 -10
-20 0 -4 10 -8 10 -21 -1 -16 -13 -22 -8 -18 13 1 5 -5 4 -13 -3 -12 -10 -14
-9 -9 11 l5 23 -23 -25 c-13 -15 -24 -20 -26 -14 -2 7 -13 10 -23 7 -12 -3
-20 0 -20 7 0 25 -59 -69 -74 -117 -13 -42 -16 -45 -22 -25 -3 13 -12 21 -18
19 -15 -5 -8 -73 11 -114 13 -28 13 -35 -1 -60 l-15 -28 -7 32 c-3 18 -10 30
-15 27 -5 -3 -6 2 -3 11 4 8 2 21 -4 28 -10 11 -20 53 -26 107 -2 14 -20 58
-41 99 -38 74 -38 74 -26 136 15 86 14 109 -9 150 -11 19 -20 37 -20 40 0 3
-3 6 -7 8 -5 1 -20 -23 -35 -53 -15 -30 -33 -64 -40 -75 -7 -11 -13 -32 -14
-47 0 -15 -7 -35 -14 -44 -12 -13 -11 -17 0 -24 12 -7 11 -10 -4 -16 -11 -4
-21 -2 -26 7 -7 11 -10 10 -16 -5 -5 -14 0 -25 22 -43 25 -20 26 -23 9 -23
-19 -1 -19 -1 -1 -15 10 -7 15 -18 12 -24 -4 -5 -2 -12 4 -16 6 -4 7 -11 4
-17 -4 -6 1 -17 11 -25 12 -8 14 -13 6 -13 -9 0 -10 -4 -4 -12 6 -7 13 -26 16
-43 4 -25 3 -27 -7 -13 -7 9 -18 36 -25 60 -8 24 -16 50 -19 58 -3 8 -4 18 -4
23 1 4 -2 7 -8 7 -5 0 -10 8 -10 18 0 10 -7 27 -15 38 -8 12 -12 24 -9 27 3 2
-3 20 -13 38 -11 19 -27 61 -37 94 -10 33 -25 80 -34 104 -8 24 -18 72 -23
105 -10 84 -45 246 -54 254 -5 4 -5 -3 -2 -15z m3039 -2120 c11 -10 18 -11 23
-3 5 8 11 8 21 -1 11 -9 14 -8 14 2 0 8 3 9 9 4 5 -6 12 -35 15 -65 3 -37 2
-47 -3 -30 -8 24 -9 23 -11 -10 l-2 -35 -12 27 c-11 27 -12 27 -25 7 -7 -12
-10 -24 -6 -27 3 -4 10 -1 14 6 5 8 8 0 8 -20 0 -18 -2 -27 -4 -20 -7 18 -21
15 -26 -5 -3 -10 -6 0 -7 22 -1 22 -4 32 -7 23 -2 -10 -9 -18 -14 -18 -6 0 -6
7 1 19 5 11 10 28 10 38 0 15 -2 16 -10 3 -8 -13 -10 -13 -10 1 0 21 -33 35
-39 17 -3 -7 -11 5 -18 27 -9 26 -12 30 -9 13 4 -33 0 -35 -14 -8 -18 33 6 58
49 53 20 -3 43 -12 53 -20z m-6622 -626 c0 -7 -9 -18 -20 -25 -11 -7 -20 -17
-20 -22 0 -6 9 -10 20 -10 11 0 20 5 20 10 0 6 16 10 36 10 33 0 36 2 32 25
-3 14 -1 25 3 25 5 0 9 -31 9 -70 0 -68 1 -70 25 -70 14 0 25 -4 25 -10 0 -6
-32 -10 -75 -10 -43 0 -75 4 -75 10 0 6 -11 10 -25 10 -23 0 -25 3 -25 50 0
34 6 56 18 69 20 22 52 27 52 8z"/>
<path d="M6430 3177 c-23 -39 -35 -102 -18 -91 4 3 8 -6 8 -20 0 -16 6 -26 15
-26 8 0 15 -9 15 -20 0 -11 4 -20 9 -20 5 0 11 -12 13 -27 l4 -28 11 25 c12
25 12 25 12 -7 1 -22 5 -31 14 -27 10 3 12 -5 10 -33 l-3 -38 10 33 c15 46 23
40 17 -14 -7 -62 10 -42 18 21 11 80 18 67 12 -20 l-6 -80 14 60 c17 72 19
115 5 115 -5 0 -10 19 -11 43 -1 36 -2 38 -9 17 -6 -19 -9 -11 -10 35 -2 33
-5 50 -7 38 -5 -26 -23 -31 -23 -8 0 14 -18 54 -30 65 -3 3 -11 16 -17 30 -7
14 -12 18 -12 10 -1 -11 -4 -12 -9 -3 -5 7 -16 -3 -32 -30z"/>
<path d="M3491 3111 c-16 -12 -22 -24 -18 -35 4 -9 3 -16 -1 -16 -4 0 -13 -13
-20 -30 -8 -16 -19 -30 -26 -30 -24 0 -56 -46 -56 -79 0 -30 2 -33 23 -27 12
4 29 8 37 9 8 1 25 8 38 15 33 19 51 9 45 -22 -3 -14 -9 -26 -14 -26 -5 0 -9
-7 -9 -15 0 -8 5 -15 10 -15 6 0 10 -8 10 -17 0 -13 3 -14 12 -5 15 15 18 286
3 301 -7 7 -18 4 -34 -8z"/>
<path d="M6190 2829 c0 -6 -11 -25 -25 -43 -14 -18 -25 -38 -25 -43 0 -6 -7
-13 -15 -17 -8 -3 -15 -15 -15 -26 0 -11 -4 -20 -8 -20 -5 0 -17 -16 -28 -35
-10 -19 -22 -35 -26 -35 -5 0 -8 -5 -8 -10 0 -6 -28 -50 -63 -98 -83 -115 -80
-109 -81 -157 -1 -35 2 -41 16 -37 10 2 18 8 18 12 0 5 29 52 65 105 36 54 65
103 65 110 0 7 7 18 15 25 8 7 15 20 15 30 0 10 7 20 15 24 8 3 15 12 15 19 0
8 7 20 15 27 8 7 12 17 9 22 -3 5 0 17 8 26 21 26 50 82 42 82 -3 0 1 11 10
25 14 22 15 25 1 25 -8 0 -15 -5 -15 -11z"/>
<path d="M10233 2383 c-20 -3 -33 -10 -33 -19 0 -8 -9 -14 -20 -14 -16 0 -20
-7 -20 -34 0 -25 5 -35 20 -39 34 -9 27 -72 -10 -104 -17 -14 -29 -31 -27 -37
13 -39 -58 -45 -231 -19 -94 14 -115 14 -122 3 -6 -9 -45 -15 -139 -18 -120
-4 -131 -6 -131 -23 0 -15 -7 -19 -31 -19 -23 0 -41 -10 -66 -35 -24 -24 -43
-35 -63 -35 -17 0 -30 -4 -30 -10 0 -5 -3 -9 -7 -9 -5 1 -23 -2 -40 -6 -23 -5
-33 -13 -33 -26 0 -14 -7 -19 -30 -19 -17 0 -45 -10 -62 -22 -22 -17 -32 -19
-35 -10 -3 8 -35 12 -110 12 -96 0 -105 2 -110 20 -5 17 -14 20 -59 20 -49 0
-54 -2 -55 -22 0 -13 -3 -17 -6 -10 -7 19 -23 15 -49 -14 -14 -14 -24 -37 -24
-55 0 -27 -3 -29 -35 -29 -19 0 -35 -4 -35 -9 0 -6 -11 -21 -24 -35 -18 -20
-33 -26 -65 -26 -44 0 -45 1 -41 68 2 37 -1 42 -19 42 -17 0 -21 6 -21 35 0
24 -5 35 -15 35 -9 0 -15 -9 -15 -25 0 -22 -4 -25 -35 -25 -34 0 -35 1 -35 37
l0 38 -19 -35 -18 -35 -117 -3 c-66 -1 -116 -7 -116 -12 0 -13 -57 -13 -65 0
-3 6 -19 10 -36 10 -27 0 -29 -3 -29 -35 0 -33 -2 -35 -35 -35 -32 0 -35 -2
-35 -30 0 -28 -3 -30 -35 -30 -29 0 -35 4 -35 21 0 17 -5 20 -32 17 -28 -2
-33 -7 -33 -28 0 -24 -3 -25 -80 -31 -44 -3 -63 -6 -42 -7 35 -2 37 -4 37 -37
0 -31 -3 -35 -25 -35 -16 0 -25 -6 -25 -16 0 -11 -5 -14 -17 -9 -10 4 -26 10
-35 12 -10 3 -18 10 -18 15 0 5 -5 6 -10 3 -6 -4 -11 -49 -11 -103 0 -53 -1
-108 -1 -122 -3 -51 2 -101 11 -96 4 3 6 -5 4 -18 -3 -12 1 -49 7 -82 38 -188
44 -286 27 -414 -7 -52 -9 -109 -6 -125 17 -79 8 -175 -30 -321 -6 -24 -4 -37
11 -55 33 -42 39 -70 39 -191 l0 -118 1339 0 1340 0 0 1195 c0 657 -3 1194 -7
1193 -5 0 -23 -3 -40 -5z"/>
</g>
</svg>
